<svg xmlns="http://www.w3.org/2000/svg" width="511.999" height="511.994" viewBox="0 0 511.999 511.994">
  <g id="racket" transform="translate(0 -0.003)">
    <g id="Group_86" data-name="Group 86">
      <g id="Group_85" data-name="Group 85">
        <path id="Path_99" data-name="Path 99" d="M472.612,39.389C443.22,10,401.767-3.688,355.895.858c-45.3,4.49-89.581,26.287-124.671,61.377q-4.6,4.6-8.928,9.46a68.833,68.833,0,1,0-67.4,97.015,69.664,69.664,0,0,0,17.952-1.123,166.864,166.864,0,0,0-1.166,65.231h-.135c-.214,20.572-4.648,77.839-22.359,95.551L113.258,364.3a18.058,18.058,0,0,0-17.734,4.611l-55.9,55.9a7.649,7.649,0,0,0,10.817,10.817l55.9-55.9a2.805,2.805,0,0,1,3.963-.005L132.282,401.7a2.809,2.809,0,0,1-.006,3.959L42.055,495.884a2.806,2.806,0,0,1-3.967,0L16.12,473.917a2.806,2.806,0,0,1,0-3.967l9.222-9.222a7.649,7.649,0,1,0-10.817-10.817L5.3,459.133a18.1,18.1,0,0,0,0,25.6L27.271,506.7a18.124,18.124,0,0,0,25.6,0l90.221-90.221a18.109,18.109,0,0,0,4.6-17.731l35.94-35.94c17.687-17.687,74.972-22.137,95.553-22.359v-.11a154.41,154.41,0,0,0,15.789,2.113q6.682.549,13.435.549c26.3,0,53.256-6.22,79.017-18.265a7.671,7.671,0,0,0,3.62-10.456h0a7.625,7.625,0,0,0-9.989-3.453c-27.791,13.016-56.976,18.672-84.83,16.38-30.384-2.5-57.022-14.395-77.035-34.4-31.823-31.823-42.64-80.579-29.259-130.983A68.846,68.846,0,0,0,227.508,89.18a212.8,212.8,0,0,1,14.535-16.13c32.6-32.6,73.566-52.829,115.362-56.971C398.634,11.993,435.7,24.113,461.8,50.2,516.079,104.5,505.83,203.076,438.95,269.956A211.247,211.247,0,0,1,412.6,292.327a7.649,7.649,0,0,0,8.986,12.381,226.521,226.521,0,0,0,28.177-23.935c35.091-35.091,56.888-79.365,61.377-124.667C515.689,110.239,502.005,68.786,472.612,39.389Zm-350.9,98.5a53.267,53.267,0,0,1-15.25-31.37,53.579,53.579,0,0,1,46.623,46.649A53.124,53.124,0,0,1,121.707,137.884ZM227.231,319.217a131.187,131.187,0,0,0,14.72,8.663q-2.681.336-5.441.727-12.56,1.793-22.992,4.322Zm-18.852-15.594q3.218,3.216,6.628,6.182L138.513,386.3,125.7,373.49l76.5-76.5Q205.171,300.4,208.379,303.623ZM192.8,284.756l-13.728,13.728q2.524-10.432,4.322-22.992.4-2.809.739-5.538A132.1,132.1,0,0,0,192.8,284.756Zm4.625-146.872a53.14,53.14,0,0,1-29.005,14.943A68.821,68.821,0,0,0,106.8,91.171a53.36,53.36,0,0,1,43.925-43.92,68.835,68.835,0,0,0,61.614,61.639A53.224,53.224,0,0,1,197.427,137.884ZM181.343,78.243a52.95,52.95,0,0,1-15.281-31.328,53.369,53.369,0,0,1,46.615,46.614A52.938,52.938,0,0,1,181.343,78.243Z" fill="#fff"/>
      </g>
    </g>
    <g id="Group_88" data-name="Group 88">
      <g id="Group_87" data-name="Group 87">
        <path id="Path_100" data-name="Path 100" d="M446.359,65.645c-21.381-21.381-52.207-31.269-86.8-27.842-36.787,3.644-73.039,21.643-102.078,50.683s-47.039,65.291-50.683,102.078c-3.427,34.6,6.461,65.424,27.842,86.8,18.6,18.605,44.361,28.507,73.531,28.507q6.528,0,13.274-.666c36.787-3.644,73.039-21.644,102.078-50.683s47.039-65.291,50.683-102.078C477.627,117.854,467.74,87.025,446.359,65.645Zm-5.684,16.5a81.441,81.441,0,0,1,15.111,29.221L433.619,89.2ZM269.008,171.507l30.336-30.336,30.335,30.335-30.336,30.336Zm19.518,41.153L258.188,243l-30.335-30.335,30.338-30.338Zm21.638-82.309,30.329-30.329,30.335,30.335L340.5,160.686ZM340.5,182.324l30.332,30.332-30.336,30.336L310.161,212.66Zm10.82-10.82,30.329-30.329,30.332,30.332-30.329,30.329Zm41.146-41.147L422.8,100.019l30.332,30.332L422.8,160.689ZM429.85,71.335l-7.05,7.05L400.66,56.244A81.43,81.43,0,0,1,429.85,71.335Zm-48.2-12.468L411.984,89.2,381.646,119.54,351.31,89.205Zm-20.587-5.84c1.743-.172,3.471-.3,5.188-.4L340.492,78.388,324.185,62.081A137.46,137.46,0,0,1,361.062,53.027ZM309.351,68.881,329.675,89.2l-30.329,30.329L273.823,94.011A168.1,168.1,0,0,1,309.351,68.881ZM263,104.832l25.524,25.522L258.19,160.69l-20.323-20.322A168.124,168.124,0,0,1,263,104.832Zm-40.986,87.24a137.473,137.473,0,0,1,9.052-36.87l16.305,16.305-25.757,25.757C221.713,195.546,221.843,193.816,222.016,192.072Zm18.3,68.795a81.472,81.472,0,0,1-15.107-29.21l22.159,22.159Zm10.818,10.818,7.052-7.052,22.159,22.159A81.46,81.46,0,0,1,251.136,271.685Zm48.2,12.463-30.332-30.332,30.338-30.338,30.332,30.332Zm20.594,5.839q-2.617.26-5.2.4l25.76-25.76L356.8,280.935A137.427,137.427,0,0,1,319.931,289.987Zm51.7-15.852L351.311,253.81l30.335-30.336L407.173,249A168.106,168.106,0,0,1,371.636,274.135Zm46.356-35.954-25.526-25.526L422.8,182.326l20.327,20.327A168.161,168.161,0,0,1,417.992,238.181Zm40.985-87.24a137.479,137.479,0,0,1-9.054,36.877l-16.31-16.31,25.764-25.764Q459.231,148.324,458.977,150.941Z" fill="#fff"/>
      </g>
    </g>
  </g>
</svg>
