<?xml version="1.0"?>
<svg xmlns="http://www.w3.org/2000/svg" enable-background="new 0 0 110 110" height="512px" viewBox="0 0 110 110" width="512px" class=""><g><path d="m55.0000153 19.8958473h-23.7330113c.1461143 13.0057755 6.3359623 32.7151527 23.7330112 32.7672882 17.397049-.0521355 23.5868988-19.7615128 23.733017-32.7672882z" fill="#ededed" data-original="#EDEDED" class=""/><path d="m80.2697983 14.6295881h-50.5396042c-1.691267 0-3.0622768 1.3708849-3.0622768 3.0622358 0 1.6911812 1.3710098 3.0622349 3.0622768 3.0622349h50.5396042c1.6912689 0 3.0623169-1.3710537 3.0623169-3.0622349 0-1.6913509-1.371048-3.0622358-3.0623169-3.0622358z" fill="#467082" data-original="#467082"/><path d="m61.7464447 58.4824066c-1.470871-.5245743-2.449646-1.920826-2.449646-3.4824524 0-1.5616226.978775-2.9578743 2.449646-3.4824486 12.2829971-4.3796043 16.8611984-20.4637585 16.986557-31.6216583h-23.7330131-23.7330113c.1253586 11.1578999 4.7036114 27.242054 16.9865589 31.6216583 1.470871.5245743 2.449646 1.920826 2.449646 3.4824486 0 1.5616264-.978775 2.9578781-2.449646 3.4824524-12.2829475 4.3796044-16.8611469 20.4639664-16.9865055 31.6216583h23.7330113 23.7330132c-.1253587-11.1578979-4.7036134-27.2422676-16.9866105-31.6216583z" fill="#ededed" data-original="#EDEDED" class=""/><path d="m37.1053505 73.9426346c-1.769516 4.2630539-2.7968025 9.0228729-3.1201744 13.5527725h42.0297394c-.3235397-4.5296936-1.3508224-9.2897186-3.1203384-13.5527725z" fill="#dd584d" data-original="#DD584D" class="" style="fill:#FFB824" data-old_color="#dd584d"/><path d="m49.1284485 49.060215c2.5020828.8907814 4.1834412 3.2778015 4.1834412 5.9399529 0 .6031227-.0970688 20.9105911-.2598457 21.4714661h3.8960533c-.1627769-.5608749-.2598991-20.8681297-.2598991-21.4714661 0-2.6613045 1.6809311-5.0483246 4.1817436-5.9399529 5.3702087-1.9144592 9.2522507-6.6483765 11.7567749-12.36903h-35.253666c2.5043106 5.7206535 6.3861389 10.4545708 11.7553978 12.36903z" fill="#dd584d" data-original="#DD584D" class="" style="fill:#FFB824" data-old_color="#dd584d"/><path d="m52.1224136 51.5215378c.6261063.5218163 1.0434723 1.9131813 1.0434723 3.4782066 0 1.5652351-.417366 2.9566002-1.0434723 3.486908-5.2433662 4.3738708-7.1912079 20.4605751-7.2433777 31.6169853h-5.8085976c.0782814-11.1564102 3.1564751-27.2431145 11.399807-31.6169853.9913025-.5303078 1.6434631-1.9216728 1.6434631-3.486908 0-1.5650253-.6521606-2.9563904-1.6434631-3.4782066-8.2433319-4.3825722-11.3215256-20.4692764-11.399807-31.6254768h5.8085976c.0521698 11.1562004 2.0000115 27.2429046 7.2433777 31.6254768z" fill="#fff" opacity=".25" data-original="#FFF" class="" data-old_color="#fff" style="fill:#FFFFFF"/><path d="m70.9308167 90.1036377h-5.8085938c-.0521774-11.1564102-2.008667-27.2431145-7.2433815-31.6169853-.6260529-.5303078-1.0434723-1.9216728-1.0434723-3.486908 0-1.5650253.4174194-2.9563904 1.0434723-3.4782066 5.2347145-4.3825722 7.1912041-20.4692764 7.2433815-31.6254768h5.8085938c-.086937 11.1562004-3.1564789 27.2429047-11.399807 31.6254768-.9913025.5218163-1.6434669 1.9131813-1.6434669 3.4782066 0 1.5652351.6521645 2.9566002 1.6434669 3.486908 8.2433281 4.3738708 11.31287 20.4605751 11.399807 31.6169853z" fill="#fff" opacity=".25" data-original="#FFF" class="" data-old_color="#fff" style="fill:#FFFFFF"/><g fill="#467082"><path d="m80.2697983 95.3704147h-50.5396042c-1.691267 0-3.0622768-1.3708878-3.0622768-3.0622406 0-1.6911774 1.3710098-3.062233 3.0622768-3.062233h50.5396042c1.6912689 0 3.0623169 1.3710556 3.0623169 3.062233 0 1.6913529-1.371048 3.0622406-3.0623169 3.0622406z" data-original="#000000" class="active-path" style="fill:#18162B" data-old_color="#000000"/><path d="m80.2697601 14.6295881h-50.5396003c-1.6912651 0-3.0622768 1.3708849-3.0622768 3.0622358 0 1.6911812 1.3710117 3.0622349 3.0622768 3.0622349h50.5396004c1.6912689 0 3.0623245-1.3710537 3.0623245-3.0622349 0-1.6913509-1.3710556-3.0622358-3.0623246-3.0622358z" data-original="#000000" class="active-path" style="fill:#18162B" data-old_color="#000000"/></g></g> </svg>
