<?xml version="1.0"?>
<svg xmlns="http://www.w3.org/2000/svg" height="512px" viewBox="0 0 512 512" width="512px"><g><path d="m180 60c16.570312 0 30-13.429688 30-30s-13.429688-30-30-30h-30c-16.570312 0-30 13.429688-30 30s13.429688 30 30 30zm0 0" data-original="#000000" class="active-path" data-old_color="#000000" fill="#FFFFFF"/><path d="m150 235.273438-60-30v86.453124l60 30zm0 0" data-original="#000000" class="active-path" data-old_color="#000000" fill="#FFFFFF"/><path d="m221.453125 181-56.453125-28.226562-56.453125 28.226562 56.453125 28.226562zm0 0" data-original="#000000" class="active-path" data-old_color="#000000" fill="#FFFFFF"/><path d="m180 321.726562 60-30v-86.453124l-60 30zm0 0" data-original="#000000" class="active-path" data-old_color="#000000" fill="#FFFFFF"/><path d="m15 512h302c8.289062 0 15-6.710938 15-15v-452c0-8.289062-6.710938-15-15-15h-77c0 33.089844-26.910156 60-60 60h-30c-33.089844 0-60-26.910156-60-60h-75c-8.289062 0-15 6.710938-15 15v452c0 8.289062 6.710938 15 15 15zm45-331 .160156-.101562c.050782-5.453126 2.914063-10.710938 8.128906-13.316407l90-45c4.222657-2.109375 9.199219-2.109375 13.421876 0l90 45c5.214843 2.605469 8.078124 7.863281 8.128906 13.316407l.160156.101562v120c0 5.683594-3.207031 10.867188-8.289062 13.417969l-90 45c-2.109376 1.054687-4.410157 1.582031-6.710938 1.582031s-4.601562-.527344-6.710938-1.582031l-90-45c-5.082031-2.550781-8.289062-7.734375-8.289062-13.417969zm15 210h180c8.289062 0 15 6.710938 15 15s-6.710938 15-15 15h-180c-8.289062 0-15-6.710938-15-15s6.710938-15 15-15zm0 0" data-original="#000000" class="active-path" data-old_color="#000000" fill="#FFFFFF"/><path d="m407 61c-24.8125 0-45 20.1875-45 45v45h90v-45c0-24.8125-20.1875-45-45-45zm0 0" data-original="#000000" class="active-path" data-old_color="#000000" fill="#FFFFFF"/><path d="m467 181h-105v225c0 2.328125.542969 4.628906 1.582031 6.710938l28.417969 56.835937v27.453125c0 8.289062 6.710938 15 15 15s15-6.710938 15-15v-27.453125l28.417969-56.835937c1.039062-2.082032 1.582031-4.382813 1.582031-6.710938v-195h15c8.277344 0 15 6.722656 15 15v90c0 8.289062 6.710938 15 15 15s15-6.710938 15-15v-90c0-24.8125-20.1875-45-45-45zm0 0" data-original="#000000" class="active-path" data-old_color="#000000" fill="#FFFFFF"/></g> </svg>
