<?xml version="1.0"?>
<svg xmlns="http://www.w3.org/2000/svg" height="512px" viewBox="-21 -50 682.66669 682" width="512px" class=""><g><path d="m640 483.800781v-485.382812h-640v485.382812h247.328125l-14.65625 60.105469h-35.664063v37.5h245.992188v-37.5h-35.671875l-14.652344-60.105469zm-110-37.5v-52.882812h72.5v52.882812zm72.5-410.382812v320h-565v-320zm-565 357.5h455v52.882812h-455zm331.230469 150.480469h-97.460938l14.660157-60.097657h68.140624zm0 0" data-original="#000000" class="active-path" data-old_color="#000000" fill="#FFFFFF"/><path d="m214.394531 233.988281h-67.007812v-112.375h-40.574219v147.75h107.582031zm0 0" data-original="#000000" class="active-path" data-old_color="#000000" fill="#FFFFFF"/><path d="m228.546875 121.613281h40.574219v147.75h-40.574219zm0 0" data-original="#000000" class="active-path" data-old_color="#000000" fill="#FFFFFF"/><path d="m368.796875 269.363281 54.3125-147.75h-42.660156l-28.503907 96.769531-28.929687-96.769531h-42.867187l54.9375 147.75zm0 0" data-original="#000000" class="active-path" data-old_color="#000000" fill="#FFFFFF"/><path d="m539.644531 233.988281h-64.71875v-23.304687h53.6875v-32.882813h-53.6875v-20.808593h62.847657v-35.378907h-103.421876v147.75h105.292969zm0 0" data-original="#000000" class="active-path" data-old_color="#000000" fill="#FFFFFF"/></g> </svg>
