<?xml version="1.0"?>
<svg xmlns="http://www.w3.org/2000/svg" xmlns:xlink="http://www.w3.org/1999/xlink" version="1.1" id="Capa_1" x="0px" y="0px" viewBox="0 0 512 512" style="enable-background:new 0 0 512 512;" xml:space="preserve" width="512px" height="512px" class=""><g><g>
	<g>
		<g>
			<g>
				<g>
					<g>
						<g>
							<g>
								<g>
									<g>
										<g>
											<circle style="fill:#1A1D27" cx="256" cy="256" r="256" data-original="#555A66" class="" data-old_color="#555A66"/>
										</g>
									</g>
								</g>
							</g>
						</g>
					</g>
				</g>
			</g>
		</g>
	</g>
	<path style="fill:#080808" d="M512,256c0-3.361-0.085-6.702-0.214-10.032L404.838,139.02L223.762,72.571l-111.675,74.405   L66.275,387l113.439,113.439C203.809,507.951,229.431,512,256,512C397.385,512,512,397.385,512,256z" data-original="#333940" class="" data-old_color="#333940"/>
	<path style="fill:#FCD462" d="M256,66.615C151.573,66.615,66.615,151.573,66.615,256v0v0   c0,104.427,84.958,189.384,189.385,189.384c104.427,0,189.385-84.958,189.385-189.385C445.385,151.573,360.427,66.615,256,66.615z    M411.716,241h-51.8c-0.605-14.496-2.08-28.671-4.381-42.292c5.934,2.3,11.598,4.816,16.942,7.551   C392.028,216.262,405.599,228.414,411.716,241z M399.818,187.333c-4.279-2.709-8.839-5.307-13.676-7.782   c-11.691-5.982-24.638-11.062-38.511-15.181c-4.12-13.874-9.199-26.82-15.181-38.511c-2.475-4.837-5.073-9.397-7.782-13.676   C357.47,127.908,384.092,154.531,399.818,187.333z M271,100.284c12.586,6.117,24.738,19.688,34.742,39.24   c2.734,5.343,5.25,11.008,7.55,16.941c-13.622-2.301-27.797-3.774-42.292-4.378V100.284z M323.075,188.925   c3.686,16.328,5.991,33.875,6.812,52.075H271v-58.888C289.201,182.933,306.747,185.24,323.075,188.925z M206.258,139.524   c10.004-19.552,22.156-33.123,34.742-39.24v51.803c-14.496,0.604-28.671,2.078-42.293,4.378   C201.008,150.532,203.524,144.867,206.258,139.524z M241,182.112V241l-58.887,0c0.821-18.201,3.126-35.747,6.812-52.075   C205.253,185.24,222.799,182.933,241,182.112z M187.333,112.182c-2.709,4.279-5.307,8.839-7.782,13.677   c-5.982,11.691-11.062,24.638-15.182,38.511c-13.874,4.12-26.82,9.199-38.511,15.181c-4.837,2.475-9.397,5.073-13.676,7.782   C127.907,154.531,154.531,127.907,187.333,112.182z M139.524,206.258c5.343-2.734,11.008-5.25,16.941-7.551   c-2.301,13.622-3.776,27.797-4.381,42.292h-51.8C106.401,228.415,119.972,216.263,139.524,206.258z M100.284,271h51.8   c0.605,14.496,2.08,28.67,4.381,42.292c-5.933-2.3-11.598-4.816-16.941-7.55C119.972,295.738,106.401,283.586,100.284,271z    M112.183,324.667c4.279,2.709,8.839,5.307,13.676,7.782c11.691,5.982,24.638,11.062,38.511,15.181   c4.12,13.874,9.199,26.82,15.182,38.511c2.475,4.837,5.073,9.397,7.782,13.676C154.531,384.093,127.908,357.47,112.183,324.667z    M241,411.716c-12.586-6.117-24.738-19.688-34.742-39.24c-2.734-5.343-5.25-11.008-7.55-16.941   c13.622,2.301,27.796,3.774,42.292,4.378V411.716z M188.925,323.075c-3.685-16.328-5.991-33.875-6.812-52.075L241,271v58.888   C222.799,329.068,205.253,326.761,188.925,323.075z M305.742,372.476c-10.004,19.552-22.156,33.123-34.742,39.24v-51.802   c14.496-0.604,28.671-2.077,42.292-4.378C310.992,361.468,308.476,367.133,305.742,372.476z M271,329.888V271h58.887   c-0.821,18.201-3.126,35.747-6.812,52.075C306.747,326.761,289.201,329.068,271,329.888z M324.667,399.817   c2.709-4.279,5.307-8.839,7.782-13.676c5.982-11.691,11.062-24.638,15.181-38.511c13.874-4.12,26.82-9.199,38.511-15.181   c4.837-2.475,9.397-5.073,13.676-7.782C384.093,357.469,357.47,384.092,324.667,399.817z M372.476,305.742   c-5.343,2.734-11.008,5.25-16.941,7.55c2.301-13.622,3.776-27.796,4.381-42.292h51.8   C405.599,283.585,392.028,295.737,372.476,305.742z" data-original="#65B1FC" class="" data-old_color="#65B1FC"/>
	<path style="fill:#F9B54C" d="M256,66.615c-0.032,0-0.063,0.001-0.095,0.001v378.767c0.032,0,0.063,0.001,0.095,0.001   c104.427,0,189.385-84.958,189.385-189.385C445.385,151.573,360.427,66.615,256,66.615z M399.818,187.333   c-4.279-2.709-8.839-5.307-13.676-7.782c-11.691-5.982-24.638-11.062-38.511-15.181c-4.12-13.874-9.199-26.82-15.181-38.511   c-2.475-4.837-5.073-9.397-7.782-13.676C357.47,127.908,384.092,154.531,399.818,187.333z M411.716,241h-51.8   c-0.605-14.496-2.08-28.671-4.381-42.292c5.934,2.3,11.598,4.816,16.942,7.551C392.028,216.262,405.599,228.414,411.716,241z    M271,100.284c12.586,6.117,24.738,19.688,34.742,39.24c2.734,5.343,5.25,11.008,7.55,16.941   c-13.622-2.301-27.797-3.774-42.292-4.378V100.284z M271,182.112c18.201,0.821,35.747,3.128,52.075,6.813   c3.686,16.328,5.991,33.875,6.812,52.075H271V182.112z M305.742,372.476c-10.004,19.552-22.156,33.123-34.742,39.24v-51.802   c14.496-0.604,28.671-2.077,42.292-4.378C310.992,361.468,308.476,367.133,305.742,372.476z M271,329.888V271h58.887   c-0.821,18.201-3.126,35.747-6.812,52.075C306.747,326.761,289.201,329.068,271,329.888z M324.667,399.817   c2.709-4.279,5.307-8.839,7.782-13.676c5.982-11.691,11.062-24.638,15.181-38.511c13.874-4.12,26.82-9.199,38.511-15.181   c4.837-2.475,9.397-5.073,13.676-7.782C384.093,357.469,357.47,384.092,324.667,399.817z M372.476,305.742   c-5.343,2.734-11.008,5.25-16.941,7.55c2.301-13.622,3.776-27.796,4.381-42.292h51.8   C405.599,283.585,392.028,295.737,372.476,305.742z" data-original="#3992EA" class="" data-old_color="#3992EA"/>
	<g>
		<rect x="66.275" y="262" style="fill:#FFFFFF;" width="379.451" height="125" data-original="#FFFFFF" class=""/>
	</g>
	<g>
		<rect x="255.905" y="262" style="fill:#E9EDF5;" width="189.82" height="125" data-original="#E9EDF5" class=""/>
	</g>
	<g>
		<g>
			<path style="fill:#080808" d="M112.087,282.229h26.125v63.724h40.773v20.819h-66.897V282.229z" data-original="#FF7045" class="" data-old_color="#FF7045"/>
		</g>
		<g>
			<path style="fill:#080808" d="M191.902,282.229h26.182v84.543h-26.182V282.229z" data-original="#FF7045" class="" data-old_color="#FF7045"/>
		</g>
		<g>
			<path style="fill:#080808" d="M228.522,282.229h27.308l19.029,60.841l18.785-60.841h26.514l-31.391,84.543H260.45     L228.522,282.229z" data-original="#FF7045" class="" data-old_color="#FF7045"/>
		</g>
		<g>
			<polygon style="fill:#080808" points="293.643,282.229 274.859,343.069 255.905,282.468 255.905,354.736 260.45,366.771      288.766,366.771 320.157,282.229    " data-original="#ED4D2E" class="active-path" data-old_color="#ED4D2E"/>
		</g>
		<g>
			<path style="fill:#080808" d="M328.634,282.229h70.01v18.05h-43.828v13.437h40.656v17.243h-40.656v16.666h45.097v19.146h-71.279     V282.229z" data-original="#ED4D2E" class="active-path" data-old_color="#ED4D2E"/>
		</g>
	</g>
</g></g> </svg>
