<?xml version="1.0"?>
<svg xmlns="http://www.w3.org/2000/svg" height="512px" viewBox="0 0 512 512" width="512px" class=""><g><path d="m512 100c0-55.140625-44.859375-100-100-100h-6.214844l-271.5 271.5 20.5 20.5-154.785156 154 66 66 154-154.785156 20.5 20.5 1.8125-1.8125c4.753906 16.058594 13.339844 30.835937 25.289062 43.164062 19.960938 20.59375 46.738282 31.933594 75.398438 31.933594 57.898438 0 105-47.101562 105-105 0-28.660156-11.339844-55.4375-31.933594-75.398438-12.328125-11.949218-27.109375-20.535156-43.164062-25.289062l139.097656-139.097656zm-446 368.785156-22.785156-22.785156 132.785156-132.785156 22.785156 22.785156zm202-122.785156c0-41.355469 33.644531-75 75-75 14.40625 0 28.230469 4.074219 40.140625 11.648438l-103.492187 103.492187c-7.574219-11.910156-11.648438-25.734375-11.648438-40.140625zm150 0c0 41.355469-33.644531 75-75 75-15.460938 0-30.152344-4.628906-42.5625-13.226562l104.335938-104.332032c8.597656 12.40625 13.226562 27.097656 13.226562 42.558594zm-83.5625-104.648438c-49.773438 4.035157-89.839844 42.933594-95.695312 92.179688l-62.027344-62.03125 241.246094-241.246094c33.855468 2.863282 60.921874 29.929688 63.785156 63.785156zm0 0" data-original="#000000" class="active-path" data-old_color="#000000" fill="#FFFFFF"/></g> </svg>
